<svg width="120" height="120" viewBox="0 0 120 120" fill="none" xmlns="http://www.w3.org/2000/svg">
  <!-- Large circuit envelope for hero/splash screens -->
  <defs>
    <linearGradient id="hero-gradient" x1="0%" y1="0%" x2="100%" y2="100%">
      <stop offset="0%" style="stop-color:#8b5cf6;stop-opacity:1" />
      <stop offset="100%" style="stop-color:#6366f1;stop-opacity:1" />
    </linearGradient>
    <filter id="shadow">
      <feGaussianBlur in="SourceAlpha" stdDeviation="3"/>
      <feOffset dx="0" dy="2" result="offsetblur"/>
      <feComponentTransfer>
        <feFuncA type="linear" slope="0.3"/>
      </feComponentTransfer>
      <feMerge>
        <feMergeNode/>
        <feMergeNode in="SourceGraphic"/>
      </feMerge>
    </filter>
  </defs>
  
  <!-- Background Circle -->
  <circle cx="60" cy="60" r="55" fill="url(#hero-gradient)" opacity="0.08"/>
  
  <!-- Main Envelope -->
  <rect x="20" y="35" width="80" height="50" rx="6" 
        stroke="url(#hero-gradient)" stroke-width="4" fill="none" filter="url(#shadow)"/>
  
  <!-- Envelope Flap -->
  <path d="M20 35 L60 62 L100 35" 
        stroke="url(#hero-gradient)" stroke-width="4" 
        stroke-linecap="round" stroke-linejoin="round" filter="url(#shadow)"/>
  
  <!-- AI Circuit Network (Inside Envelope) -->
  <!-- Central Hub -->
  <circle cx="60" cy="60" r="4" fill="url(#hero-gradient)"/>
  
  <!-- Top Layer Nodes -->
  <circle cx="40" cy="52" r="2.5" fill="url(#hero-gradient)" opacity="0.8"/>
  <circle cx="80" cy="52" r="2.5" fill="url(#hero-gradient)" opacity="0.8"/>
  <line x1="40" y1="52" x2="56" y2="58" stroke="url(#hero-gradient)" stroke-width="2" opacity="0.5"/>
  <line x1="80" y1="52" x2="64" y2="58" stroke="url(#hero-gradient)" stroke-width="2" opacity="0.5"/>
  
  <!-- Bottom Layer Nodes -->
  <circle cx="45" cy="70" r="2.5" fill="url(#hero-gradient)" opacity="0.7"/>
  <circle cx="75" cy="70" r="2.5" fill="url(#hero-gradient)" opacity="0.7"/>
  <line x1="45" y1="70" x2="56" y2="62" stroke="url(#hero-gradient)" stroke-width="2" opacity="0.4"/>
  <line x1="75" y1="70" x2="64" y2="62" stroke="url(#hero-gradient)" stroke-width="2" opacity="0.4"/>
  
  <!-- Side Nodes -->
  <circle cx="30" cy="60" r="2" fill="url(#hero-gradient)" opacity="0.6"/>
  <circle cx="90" cy="60" r="2" fill="url(#hero-gradient)" opacity="0.6"/>
  <line x1="30" y1="60" x2="56" y2="60" stroke="url(#hero-gradient)" stroke-width="1.5" opacity="0.3"/>
  <line x1="90" y1="60" x2="64" y2="60" stroke="url(#hero-gradient)" stroke-width="1.5" opacity="0.3"/>
</svg>
