<svg width="48" height="48" viewBox="0 0 48 48" fill="none" xmlns="http://www.w3.org/2000/svg">
  <!-- AI Brain merging with Envelope -->
  <defs>
    <linearGradient id="fusion-gradient" x1="0%" y1="0%" x2="100%" y2="100%">
      <stop offset="0%" style="stop-color:#8b5cf6;stop-opacity:1" />
      <stop offset="100%" style="stop-color:#6366f1;stop-opacity:1" />
    </linearGradient>
    <clipPath id="left-half">
      <rect x="0" y="0" width="24" height="48"/>
    </clipPath>
    <clipPath id="right-half">
      <rect x="24" y="0" width="24" height="48"/>
    </clipPath>
  </defs>
  
  <!-- Left Side: AI Neural Network -->
  <g clip-path="url(#left-half)">
    <!-- Brain outline (left half) -->
    <path d="M12 16 Q8 18 8 24 Q8 30 12 32" 
          stroke="url(#fusion-gradient)" stroke-width="2" fill="none"/>
    
    <!-- Neural nodes -->
    <circle cx="14" cy="20" r="1.2" fill="url(#fusion-gradient)"/>
    <circle cx="12" cy="24" r="1.5" fill="url(#fusion-gradient)"/>
    <circle cx="14" cy="28" r="1.2" fill="url(#fusion-gradient)"/>
    <circle cx="18" cy="22" r="1" fill="url(#fusion-gradient)" opacity="0.7"/>
    <circle cx="18" cy="26" r="1" fill="url(#fusion-gradient)" opacity="0.7"/>
    
    <!-- Connections -->
    <line x1="14" y1="20" x2="18" y2="22" stroke="url(#fusion-gradient)" stroke-width="0.8" opacity="0.5"/>
    <line x1="12" y1="24" x2="18" y2="22" stroke="url(#fusion-gradient)" stroke-width="0.8" opacity="0.5"/>
    <line x1="12" y1="24" x2="18" y2="26" stroke="url(#fusion-gradient)" stroke-width="0.8" opacity="0.5"/>
    <line x1="14" y1="28" x2="18" y2="26" stroke="url(#fusion-gradient)" stroke-width="0.8" opacity="0.5"/>
  </g>
  
  <!-- Right Side: Envelope -->
  <g clip-path="url(#right-half)">
    <!-- Envelope outline (right half) -->
    <path d="M24 16 L40 16 L40 32 L24 32" 
          stroke="url(#fusion-gradient)" stroke-width="2" fill="none"/>
    
    <!-- Envelope flap (right side) -->
    <path d="M24 16 L32 23 L40 16" 
          stroke="url(#fusion-gradient)" stroke-width="2" 
          stroke-linecap="round" stroke-linejoin="round"/>
  </g>
  
  <!-- Center fusion point - glowing connection -->
  <circle cx="24" cy="24" r="2" fill="url(#fusion-gradient)" opacity="0.3"/>
  <circle cx="24" cy="24" r="1.2" fill="url(#fusion-gradient)"/>
</svg>
