<svg width="32" height="32" viewBox="0 0 32 32" fill="none" xmlns="http://www.w3.org/2000/svg">
  <!-- FUSION LOGO: Brain + Envelope (PURPLE, MAX SIZE) -->
  <defs>
    <clipPath id="left">
      <rect x="0" y="0" width="16" height="32"/>
    </clipPath>
    <clipPath id="right">
      <rect x="16" y="0" width="16" height="32"/>
    </clipPath>
  </defs>
  
  <!-- Left: Brain Neural Network (PURPLE) -->
  <g clip-path="url(#left)">
    <path d="M3 6 Q1 8 1 16 Q1 24 3 26" stroke="#8b5cf6" stroke-width="2" fill="none"/>
    <circle cx="5" cy="10" r="1.5" fill="#8b5cf6"/>
    <circle cx="4" cy="16" r="2" fill="#8b5cf6"/>
    <circle cx="5" cy="22" r="1.5" fill="#8b5cf6"/>
    <circle cx="10" cy="13" r="1.2" fill="#8b5cf6"/>
    <circle cx="10" cy="19" r="1.2" fill="#8b5cf6"/>
    <line x1="5" y1="10" x2="10" y2="13" stroke="#8b5cf6" stroke-width="1.2" opacity="0.6"/>
    <line x1="4" y1="16" x2="10" y2="13" stroke="#8b5cf6" stroke-width="1.2" opacity="0.6"/>
    <line x1="4" y1="16" x2="10" y2="19" stroke="#8b5cf6" stroke-width="1.2" opacity="0.6"/>
    <line x1="5" y1="22" x2="10" y2="19" stroke="#8b5cf6" stroke-width="1.2" opacity="0.6"/>
  </g>
  
  <!-- Right: Envelope (PURPLE) -->
  <g clip-path="url(#right)">
    <path d="M16 6 L31 6 L31 26 L16 26" stroke="#8b5cf6" stroke-width="2" fill="none"/>
    <path d="M16 6 L23.5 15 L31 6" stroke="#8b5cf6" stroke-width="2" stroke-linecap="round" stroke-linejoin="round"/>
  </g>
  
  <!-- Center fusion point (PURPLE) -->
  <circle cx="16" cy="16" r="2.5" fill="#8b5cf6" opacity="0.4"/>
  <circle cx="16" cy="16" r="1.5" fill="#8b5cf6"/>
</svg>
